<svg xmlns="http://www.w3.org/2000/svg" width="180" height="180" style="shape-rendering:geometricPrecision;text-rendering:geometricPrecision;image-rendering:optimizeQuality;fill-rule:evenodd;clip-rule:evenodd"><path style="opacity:1" fill="#222627" d="M-.5-.5h180v180H-.5V-.5z"/><path style="opacity:1" fill="#d46156" d="M10.5 6.5h158v63c-.994-10.153-1.328-20.486-1-31a241.046 241.046 0 0 0-1-31c-.886.825-1.219 1.825-1 3h-152a6084.905 6084.905 0 0 0-1 156h-2V6.5z"/><path style="opacity:1" fill="#242425" d="M32.5 10.5h132v1a10.098 10.098 0 0 0-6 1.5c.948.483 1.948.65 3 .5 1.524 3.781.191 6.281-4 7.5 1.211.893 1.211 1.726 0 2.5-14.68 1.237-29.514 1.237-44.5 0A145.285 145.285 0 0 1 96.5 25c5.137-.547 6.803 1.453 5 6a2.427 2.427 0 0 0 2 .5 535.223 535.223 0 0 1-17.5 37 524.121 524.121 0 0 0-18.5-39c-5.513-1.316-11.18-1.316-17 0 .124.607.457.94 1 1 9.004 17.72 17.67 35.72 26 54 1 1.333 2 1.333 3 0a97.34 97.34 0 0 0 5.5-12A52.53 52.53 0 0 1 91.5 83a5415.841 5415.841 0 0 0-33 61.5 57.15 57.15 0 0 0 15 1c-2.787.977-5.787 1.31-9 1-2.302 1.322-4.635 1.322-7 0l-1 2a18.194 18.194 0 0 0-4-6 7.292 7.292 0 0 0-2 3c-5.82 1.316-11.487 1.316-17 0a64.875 64.875 0 0 0 16-1 3441.207 3441.207 0 0 1 25-49.5 1912.256 1912.256 0 0 1-31-64.5c-.321-1.548-1.321-2.215-3-2a2.428 2.428 0 0 0-.5-2c-2.545 1.297-5.045 1.13-7.5-.5l6-1c-2.387-1.892-5.053-3.058-8-3.5a21.12 21.12 0 0 0 9-1 3.646 3.646 0 0 0-1-1.5c-5.99-.5-11.99-.666-18-.5 5.475-.989 11.142-1.322 17-1-.229-1.933-1.062-3.6-2.5-5l-1 3a27.57 27.57 0 0 0-1.5-5z"/><path style="opacity:1" fill="#d35f56" d="M20.5 18.5c6.01-.166 12.01 0 18 .5.457.414.79.914 1 1.5a21.12 21.12 0 0 1-9 1h-10v-3z"/><path style="opacity:1" fill="#d25c52" d="M50.5 18.5h34v3h-34v-3z"/><path style="opacity:1" fill="#d35b54" d="M95.5 18.5h61v3h-61v-3z"/><path style="opacity:1" fill="#222426" d="M13.5 10.5c-.167 43.668 0 87.335.5 131 .5-43.332.667-86.665.5-130 3.213.31 6.213-.023 9-1h9a27.57 27.57 0 0 1 1.5 5l1-3c1.438 1.4 2.271 3.067 2.5 5-5.858-.322-11.525.011-17 1v3h10c2.947.442 5.613 1.608 8 3.5l-6 1c2.455 1.63 4.955 1.797 7.5.5.464.594.631 1.261.5 2a13.117 13.117 0 0 0-7 1c.124.607.457.94 1 1a1503.946 1503.946 0 0 1 27 57.5 4537.8 4537.8 0 0 0-28 57.5c5.513 1.316 11.18 1.316 17 0a7.292 7.292 0 0 1 2-3 18.194 18.194 0 0 1 4 6l1-2c2.365 1.322 4.698 1.322 7 0a20.676 20.676 0 0 0-1 5 2.429 2.429 0 0 0-2 .5c2.107 1.264 3.107 3.097 3 5.5a22.679 22.679 0 0 1-7 6l2 1a6.802 6.802 0 0 1-3 1.5c.84 1.666.34 1.833-1.5.5a2.427 2.427 0 0 0-.5 2c-14.373.649-28.373-.018-42-2-.332-52.169.001-104.17 1-156z"/><path style="opacity:1" fill="#753a37" d="M40.5 28.5c1.679-.215 2.679.452 3 2-3.104-1.275-6.104-1.275-9 0-.543-.06-.876-.393-1-1a13.117 13.117 0 0 1 7-1z"/><path style="opacity:1" fill="#582221" d="M67.5 29.5c-5.526-.321-10.86.012-16 1-.543-.06-.876-.393-1-1 5.82-1.316 11.487-1.316 17 0z"/><path style="opacity:1" fill="#142b27" d="M13.5 10.5h10c-2.787.977-5.787 1.31-9 1 .167 43.335 0 86.668-.5 130a8580.26 8580.26 0 0 1-.5-131z"/><path style="opacity:1" fill="#d94a46" d="M43.5 30.5a1912.256 1912.256 0 0 0 31 64.5 3441.207 3441.207 0 0 0-25 49.5 64.875 64.875 0 0 1-16 1 4537.8 4537.8 0 0 1 28-57.5 1503.946 1503.946 0 0 0-27-57.5c2.896-1.275 5.896-1.275 9 0z"/><path style="opacity:1" fill="#1a2635" d="M170.5 6.5a7142.652 7142.652 0 0 1 1 169c-2.836.298-3.336-.369-1.5-2 .5-55.666.667-111.332.5-167z"/><path style="opacity:1" fill="#e85241" d="M167.5 38.5a2687.71 2687.71 0 0 0 0 121l-1 11c-.798-.457-1.131-1.124-1-2v-158c-.219-1.175.114-2.175 1-3a241.046 241.046 0 0 1 1 31z"/><path style="opacity:1" fill="#d94a46" d="M51.5 30.5c5.14-.988 10.474-1.321 16-1a524.121 524.121 0 0 1 18.5 39 535.223 535.223 0 0 0 17.5-37c6.389-2.063 13.056-2.563 20-1.5a1241.764 1241.764 0 0 0-31 59 1419.258 1419.258 0 0 0 27 55.5c-4.55 1.3-9.05 1.3-13.5 0a351.384 351.384 0 0 0-15-32 1182.154 1182.154 0 0 1-17.5 33 57.15 57.15 0 0 1-15-1 5415.841 5415.841 0 0 1 33-61.5A52.53 52.53 0 0 0 86 72.5a97.34 97.34 0 0 1-5.5 12c-1 1.333-2 1.333-3 0a1407.824 1407.824 0 0 0-26-54z"/><path style="opacity:1" fill="#212526" d="M164.5 11.5a5041.4 5041.4 0 0 0-1 123 408.772 408.772 0 0 0 2 28v6h-111a2.427 2.427 0 0 1 .5-2c1.84 1.333 2.34 1.166 1.5-.5a6.802 6.802 0 0 0 3-1.5l-2-1a22.679 22.679 0 0 0 7-6c5.126 4.135 5.792 3.635 2-1.5 1.333-1.84 1.166-2.34-.5-1.5-.377-1.442-1.21-2.442-2.5-3a20.676 20.676 0 0 1 1-5c3.213.31 6.213-.023 9-1a1182.154 1182.154 0 0 0 17.5-33 351.384 351.384 0 0 1 15 32c4.45 1.3 8.95 1.3 13.5 0a1419.258 1419.258 0 0 1-27-55.5 1241.764 1241.764 0 0 1 31-59c-6.944-1.063-13.611-.563-20 1.5a2.427 2.427 0 0 1-2-.5c1.803-4.547.137-6.547-5-6a145.285 145.285 0 0 0 16.5-1.5c14.986 1.237 29.82 1.237 44.5 0 1.211-.774 1.211-1.607 0-2.5 4.191-1.219 5.524-3.719 4-7.5a4.932 4.932 0 0 1-3-.5 10.098 10.098 0 0 1 6-1.5z"/><path style="opacity:1" fill="#da4a45" d="M133.5 29.5c4.794-.597 9.127.07 13 2a971.888 971.888 0 0 0-29 59.5 3929.363 3929.363 0 0 0 24 54.5h-15a626.454 626.454 0 0 0-26-54.5c10.647-20.8 21.647-41.3 33-61.5z"/><path style="opacity:1" fill="#59201f" d="M133.5 29.5c4.47-.986 9.137-1.32 14-1 .237 1.291-.096 2.291-1 3-3.873-1.93-8.206-2.597-13-2z"/><path style="opacity:1" fill="#392321" d="M164.5 10.5h1v152a408.772 408.772 0 0 1-2-28 5041.4 5041.4 0 0 1 1-123v-1z"/><path style="opacity:1" fill="#f0f0f0" d="M55.5 152.5c1.068-.934 2.401-1.268 4-1 .237 1.291-.096 2.291-1 3-.321-1.548-1.321-2.215-3-2z"/><path style="opacity:1" fill="#f7f7f7" d="M63.5 151.5c1.29.558 2.123 1.558 2.5 3 1.666-.84 1.833-.34.5 1.5 3.792 5.135 3.126 5.635-2 1.5.107-2.403-.893-4.236-3-5.5a2.429 2.429 0 0 1 2-.5z"/><path style="opacity:1" fill="#e4e5e5" d="M68.5 152.5c2.128-1.129 4.462-1.296 7-.5-.944 2.719-1.277 5.552-1 8.5a4.934 4.934 0 0 1-3-.5c.935-2.381 1.268-4.881 1-7.5h-4z"/><path style="opacity:1" fill="#f9f9f9" d="M91.5 151.5c1.175-.219 2.175.114 3 1a37.283 37.283 0 0 0-.5 7c-3.697 1.143-4.197.31-1.5-2.5-2.135-1.556-2.468-3.389-1-5.5z"/><path style="opacity:1" fill="#fefffe" d="M95.5 151.5a13.116 13.116 0 0 1 7 1c-1.723 2.368-2.39 5.034-2 8h-3c.21-3.252-.456-6.252-2-9z"/><path style="opacity:1" fill="#f4f4f4" d="M103.5 151.5h3c.667 9.333 1.333 9.333 2 0h3v9c-2.619.268-5.119-.065-7.5-1a32.462 32.462 0 0 1-.5-8z"/><path style="opacity:1" fill="#fdfdfd" d="M113.5 151.5c6.988-.852 9.322 1.981 7 8.5-2.31.497-4.643.663-7 .5v-9z"/><path style="opacity:1" fill="#f9f9f9" d="M123.5 151.5h3v9h-3v-9zM129.5 151.5c4.851-.632 7.351 1.368 7.5 6-2.706 3.478-5.706 3.811-9 1-.833-2.671-.333-5.004 1.5-7z"/><path style="opacity:1" fill="#f0f0f0" d="M55.5 152.5c.321 1.548 1.321 2.215 3 2 2.64 1.965 2.64 3.965 0 6-.41-.762-.577-1.762-.5-3-.67-.752-1.504-1.086-2.5-1-1.186-1.461-1.186-2.795 0-4z"/><path style="opacity:1" fill="#1f2526" d="M55.5 152.5c1.679-.215 2.679.452 3 2-1.679.215-2.679-.452-3-2z"/><path style="opacity:1" fill="#24292a" d="M130.5 153.5c1.846-.278 3.18.389 4 2-.577 2.05-1.91 3.05-4 3v-5z"/><path style="opacity:1" fill="#1d2325" d="M115.5 153.5c3.661-.15 4.661 1.35 3 4.5a4.934 4.934 0 0 1-3 .5v-5z"/><path style="opacity:1" fill="#e0e0e0" d="M55.5 156.5c.406 1.609.406 2.943 0 4-2.64-1.373-2.64-2.706 0-4z"/><path style="opacity:1" fill="#dadada" d="M77.5 158.5c1.273.577 1.273 1.243 0 2-.963-.47-.963-1.137 0-2z"/><path style="opacity:1" fill="#cc5447" d="M167.5 38.5c-.328 10.514.006 20.847 1 31a2704.72 2704.72 0 0 1-1 104 6163.673 6163.673 0 0 0-157-1v-6h2c13.627 1.982 27.627 2.649 42 2h111c-.131.876.202 1.543 1 2l1-11a2687.71 2687.71 0 0 1 0-121z"/><path style="opacity:1" fill="#9f4f44" d="M10.5 6.5v166c52.503-.332 104.836.001 157 1H9.5a6972.84 6972.84 0 0 1 1-167z"/></svg>